HIERARCHY
ROOT Hips
{
	OFFSET 15.585500 22.159004 44.358299
	CHANNELS 6 Xposition Yposition Zposition Zrotation Xrotation Yrotation
	JOINT Chest
	{
		OFFSET -0.128500 0.160400 6.566002
		CHANNELS 6 Xposition Yposition Zposition Zrotation Xrotation Yrotation
		JOINT Chest2
		{
			OFFSET 0.000000 0.000000 3.554802
			CHANNELS 6 Xposition Yposition Zposition Zrotation Xrotation Yrotation
			JOINT Neck
			{
				OFFSET 0.000000 0.000000 8.267998
				CHANNELS 6 Xposition Yposition Zposition Zrotation Xrotation Yrotation
				JOINT Head
				{
					OFFSET 0.000000 0.000002 2.173897
					CHANNELS 6 Xposition Yposition Zposition Zrotation Xrotation Yrotation
					End Site
					{
						OFFSET 0.000000 0.000000 7.718697
					}
				}
			}
			JOINT LeftCollar
			{
				OFFSET 2.057500 0.117599 5.946301
				CHANNELS 6 Xposition Yposition Zposition Zrotation Xrotation Yrotation
				JOINT LeftShoulder
				{
					OFFSET 4.957699 0.000000 0.000000
					CHANNELS 6 Xposition Yposition Zposition Zrotation Xrotation Yrotation
					JOINT LeftElbow
					{
						OFFSET 0.000000 0.000000 -8.465500
						CHANNELS 6 Xposition Yposition Zposition Zrotation Xrotation Yrotation
						JOINT LeftWrist
						{
							OFFSET 0.000000 -0.000002 -14.594898
							CHANNELS 6 Xposition Yposition Zposition Zrotation Xrotation Yrotation
							End Site
							{
								OFFSET 0.000000 0.000000 -2.173901
							}
						}
					}
				}
			}
			JOINT RightCollar
			{
				OFFSET -3.048500 -0.728800 6.604099
				CHANNELS 6 Xposition Yposition Zposition Zrotation Xrotation Yrotation
				JOINT RightShoulder
				{
					OFFSET -3.710299 0.000000 0.000000
					CHANNELS 6 Xposition Yposition Zposition Zrotation Xrotation Yrotation
					JOINT RightElbow
					{
						OFFSET 0.000000 0.000000 -10.450901
						CHANNELS 6 Xposition Yposition Zposition Zrotation Xrotation Yrotation
						JOINT RightWrist
						{
							OFFSET 0.000000 0.000000 -12.539200
							CHANNELS 6 Xposition Yposition Zposition Zrotation Xrotation Yrotation
							End Site
							{
								OFFSET 0.000000 -0.000002 -2.173901
							}
						}
					}
				}
			}
		}
	}
	JOINT LeftHip
	{
		OFFSET 2.442599 -0.601400 -2.767502
		CHANNELS 6 Xposition Yposition Zposition Zrotation Xrotation Yrotation
		JOINT LeftKnee
		{
			OFFSET 0.000000 -0.000002 -17.033703
			CHANNELS 6 Xposition Yposition Zposition Zrotation Xrotation Yrotation
			JOINT LeftAnkle
			{
				OFFSET 0.000000 -0.000002 -19.318800
				CHANNELS 6 Xposition Yposition Zposition Zrotation Xrotation Yrotation
				End Site
				{
					OFFSET 0.000000 -8.281900 0.000000
				}
			}
		}
	}
	JOINT RightHip
	{
		OFFSET -3.126200 -0.601400 -2.283501
		CHANNELS 6 Xposition Yposition Zposition Zrotation Xrotation Yrotation
		JOINT RightKnee
		{
			OFFSET 0.000000 -0.000002 -16.919401
			CHANNELS 6 Xposition Yposition Zposition Zrotation Xrotation Yrotation
			JOINT RightAnkle
			{
				OFFSET 0.000000 -0.000002 -18.035900
				CHANNELS 6 Xposition Yposition Zposition Zrotation Xrotation Yrotation
				End Site
				{
					OFFSET 0.000000 -9.230099 0.000000
				}
			}
		}
	}
}
MOTION
Frames: 9
Frame Time: 0.041667
23.415001 38.652412 9.169102 3.081142 0.523916 -4.439701 -0.128499 0.160396 6.566006 -3.262789 3.831316 3.815232 0.000001 -0.000000 3.554806 -3.765319 -12.376427 -2.218043 -0.000002 0.000001 8.267997 29.328084 4.842967 -12.041698 -0.000002 0.000007 2.173898 -2.969830 -3.669804 6.015333 2.057502 0.117606 5.946307 -18.411466 2.032691 5.421785 4.957694 0.000008 -0.000004 6.187875 -8.651544 -163.549672 0.000002 0.000005 -8.465499 -80.328291 -155.466812 -156.218898 -0.000002 0.000007 -14.594896 -304.307986 -30.877735 -296.814285 -3.048502 -0.728799 6.604103 22.753114 1.426496 6.979863 -3.710297 0.000000 -0.000004 24.525290 -11.857260 159.576879 0.000000 0.000004 -10.450897 -54.172997 -24.519918 -9.338346 -0.000004 -0.000000 -12.539200 504.274615 193.420931 -240.992269 2.442596 -0.601404 -2.767499 135.144882 3.466180 93.485667 -0.000002 -0.000007 -17.033707 -182.887194 45.420649 171.313111 0.000000 0.000003 -19.318804 -146.406758 118.240478 402.247626 -3.126197 -0.601407 -2.283495 -133.510254 -25.207462 -104.103920 -0.000005 -0.000003 -16.919395 349.749453 -63.770170 -195.143696 0.000000 -0.000001 -18.035896 197.463392 52.816770 -199.161800
23.438099 38.634903 9.175491 3.053475 0.652014 -4.309258 -0.128502 0.160398 6.566000 -3.262178 3.798228 3.870594 -0.000002 0.000002 3.554803 -3.731448 -12.414149 -2.223659 0.000001 0.000004 8.268000 27.338367 4.821338 -11.109279 0.000002 0.000002 2.173899 -2.302842 -3.685093 5.288681 2.057504 0.117609 5.946310 -18.454381 2.091120 5.237754 4.957698 0.000005 -0.000007 6.183208 -8.591998 -163.699390 -0.000009 0.000003 -8.465503 -80.126773 -156.011629 -156.775203 0.000006 -0.000002 -14.594902 -303.781734 -30.459696 -297.487769 -3.048498 -0.728797 6.604104 22.666949 1.368094 6.811166 -3.710298 0.000000 -0.000008 25.019797 -11.871807 159.749491 0.000003 0.000000 -10.450892 -54.194809 -23.740957 -9.151694 -0.000005 0.000005 -12.539192 502.910490 193.098436 -240.317610 2.442591 -0.601404 -2.767508 135.138913 3.317886 93.572792 0.000000 -0.000005 -17.033710 -182.766915 45.466326 171.361441 -0.000001 0.000001 -19.318804 -146.335041 118.280011 402.105613 -3.126203 -0.601406 -2.283505 -133.513915 -25.063374 -103.955896 -0.000003 -0.000005 -16.919394 348.865736 -63.694335 -195.845880 -0.000001 -0.000003 -18.035896 197.122196 52.888313 -198.985008
23.460699 38.617203 9.181900 3.030988 0.776992 -4.187821 -0.128499 0.160399 6.566004 -3.265358 3.762336 3.925075 -0.000002 -0.000002 3.554805 -3.695399 -12.447583 -2.228215 0.000001 -0.000002 8.267999 25.319580 4.793476 -10.144799 0.000001 -0.000000 2.173890 -1.606300 -3.708986 4.545738 2.057501 0.117604 5.946303 -18.494242 2.148100 5.034549 4.957695 0.000011 -0.000004 6.177006 -8.527591 -163.815940 -0.000002 0.000004 -8.465498 -79.953170 -156.531093 -157.315909 0.000001 -0.000001 -14.594897 -303.260727 -30.049376 -298.215458 -3.048500 -0.728800 6.604095 22.582890 1.305833 6.644712 -3.710297 0.000004 -0.000004 25.470477 -11.848361 159.907911 -0.000003 -0.000004 -10.450891 -54.250932 -22.974738 -8.961531 -0.000005 0.000003 -12.539204 501.646959 192.741778 -240.313185 2.442597 -0.601398 -2.767503 135.129993 3.168227 93.649987 0.000000 -0.000004 -17.033705 -182.643097 45.510192 171.412135 -0.000004 -0.000002 -19.318804 -146.263501 118.320351 401.962425 -3.126197 -0.601402 -2.283500 -133.523095 -24.928452 -103.810584 -0.000003 -0.000000 -16.919401 347.988549 -63.617557 -196.539431 0.000000 0.000000 -18.035896 196.780045 52.961570 -198.804349
23.482502 38.599304 9.188297 3.013548 0.900208 -4.075512 -0.128498 0.160400 6.566006 -3.282603 3.720270 4.031046 0.000004 -0.000000 3.554811 -3.657509 -12.473383 -2.285265 0.000002 -0.000007 8.267995 23.328352 4.754935 -9.183673 0.000001 0.000009 2.173897 -0.916477 -3.747132 3.816685 2.057506 0.117597 5.946304 -18.533981 2.205597 4.815207 4.957693 0.000005 -0.000002 6.171680 -8.459323 -163.901755 -0.000007 -0.000001 -8.465494 -79.806157 -157.028016 -157.841642 0.000002 0.000003 -14.594900 -302.754829 -29.653099 -299.016174 -3.048499 -0.728806 6.604096 22.498571 1.238177 6.477816 -3.710297 0.000000 -0.000009 25.875613 -11.784588 160.051618 0.000002 0.000001 -10.450895 -54.346251 -22.223878 -8.767683 -0.000006 0.000005 -12.539209 500.418946 192.384354 -240.232916 2.442595 -0.601399 -2.767503 135.167203 3.027534 93.727729 0.000001 0.000000 -17.033707 -182.530481 45.501935 171.478292 -0.000001 -0.000004 -19.318802 -146.191730 118.361591 401.818472 -3.126198 -0.601399 -2.283498 -133.539815 -24.799754 -103.670749 -0.000004 -0.000003 -16.919399 347.116743 -63.536086 -197.226794 0.000001 0.000001 -18.035896 196.434110 53.035367 -198.619797
23.503798 38.581203 9.194702 3.001268 1.022517 -3.971991 -0.128499 0.160396 6.565999 -3.281130 3.671870 4.027397 0.000000 -0.000007 3.554806 -3.615136 -12.501270 -2.233497 0.000001 -0.000002 8.268000 21.414159 4.700070 -8.259551 -0.000000 0.000001 2.173898 -0.264830 -3.798928 3.132418 2.057501 0.117601 5.946304 -18.577898 2.266265 4.583711 4.957692 -0.000000 -0.000003 6.170576 -8.389415 -163.959169 0.000000 0.000001 -8.465498 -79.684422 -157.505337 -158.353141 -0.000003 0.000010 -14.594897 -302.267399 -29.274532 -299.892597 -3.048502 -0.728798 6.604103 22.412274 1.164193 6.307109 -3.710297 0.000002 -0.000005 26.236153 -11.679244 160.181091 0.000005 0.000004 -10.450901 -54.483220 -21.490490 -8.570205 -0.000004 0.000006 -12.539192 499.234755 192.029935 -240.073663 2.442593 -0.601403 -2.767504 135.154622 2.886037 93.788353 -0.000001 -0.000002 -17.033707 -182.404600 45.538630 171.531390 -0.000002 -0.000001 -19.318808 -146.119521 118.403597 401.673917 -3.126199 -0.601400 -2.283504 -133.565305 -24.673720 -103.538161 -0.000006 -0.000004 -16.919399 346.250074 -63.446549 -197.909963 -0.000000 -0.000003 -18.035900 196.081467 53.108570 -198.431380
23.524498 38.562801 9.201199 2.993839 1.144606 -3.876825 -0.128500 0.160400 6.566011 -3.292652 3.612623 4.071903 -0.000002 0.000011 3.554806 -3.569014 -12.520604 -2.233669 -0.000004 0.000001 8.268000 19.622479 4.638262 -7.389351 0.000003 0.000009 2.173897 0.318723 -3.876197 2.509047 2.057502 0.117595 5.946307 -18.631352 2.333653 4.344848 4.957695 0.000000 -0.000004 6.178181 -8.320409 -163.990451 -0.000001 0.000002 -8.465496 -79.585631 -157.966279 -158.851499 -0.000004 -0.000003 -14.594903 -301.800651 -28.916999 -300.848031 -3.048506 -0.728802 6.604101 22.323802 1.084741 6.130382 -3.710296 -0.000002 -0.000005 26.553810 -11.534606 160.297723 0.000001 0.000005 -10.450890 -54.661232 -20.776312 -8.369231 -0.000004 0.000003 -12.539206 498.471741 191.993694 -240.376132 2.442594 -0.601402 -2.767500 135.088520 2.752256 93.831602 0.000001 0.000001 -17.033705 -182.272313 45.623956 171.568942 -0.000003 0.000000 -19.318796 -146.046698 118.446340 401.529008 -3.126203 -0.601401 -2.283501 -133.600208 -24.546971 -103.414234 -0.000004 -0.000002 -16.919395 345.389498 -63.345708 -198.589799 -0.000000 -0.000005 -18.035894 195.719685 53.179921 -198.239219
23.544701 38.544205 9.207893 2.990516 1.266895 -3.789246 -0.128501 0.160394 6.566000 -3.305165 3.541227 4.108915 -0.000004 0.000006 3.554807 -3.516783 -12.534116 -2.231570 0.000001 0.000006 8.268006 17.976409 4.564872 -6.590529 0.000001 0.000005 2.173896 0.819662 -3.972468 1.965625 2.057506 0.117610 5.946309 -18.699484 2.411020 4.103007 4.957693 0.000007 -0.000011 6.199513 -8.254702 -163.996353 0.000001 0.000003 -8.465506 -79.506926 -158.413315 -159.338478 -0.000005 0.000004 -14.594905 -301.354831 -28.582813 -301.886356 -3.048501 -0.728798 6.604106 22.235283 1.002145 5.946727 -3.710297 0.000002 -0.000009 26.828988 -11.355265 160.402772 0.000000 0.000005 -10.450891 -54.878658 -20.082904 -8.165555 -0.000006 0.000006 -12.539201 497.156192 191.487222 -239.478809 2.442594 -0.601405 -2.767503 135.071198 2.624818 93.877836 0.000001 0.000000 -17.033705 -182.147307 45.655385 171.620661 -0.000002 0.000003 -19.318806 -145.973737 118.489903 401.384235 -3.126202 -0.601411 -2.283501 -133.644467 -24.416166 -103.299487 -0.000005 -0.000004 -16.919395 344.537555 -63.231139 -199.265961 -0.000000 -0.000000 -18.035896 195.347071 53.248585 -198.043466
23.564199 38.525398 9.214798 2.990890 1.388869 -3.708537 -0.128498 0.160401 6.566011 -3.317718 3.456598 4.135700 -0.000002 -0.000006 3.554806 -3.456538 -12.540874 -2.226647 0.000000 0.000007 8.267995 16.487474 4.480995 -5.867673 0.000001 0.000005 2.173895 1.230963 -4.087065 1.509096 2.057504 0.117602 5.946302 -18.787371 2.503721 3.862572 4.957693 0.000009 -0.000005 6.239156 -8.197412 -163.976299 -0.000003 -0.000001 -8.465494 -79.444259 -158.849149 -159.814829 0.000005 0.000003 -14.594892 -300.934146 -28.274024 -303.011480 -3.048502 -0.728797 6.604105 22.149076 0.919211 5.758304 -3.710294 0.000000 -0.000010 27.061341 -11.148402 160.495567 0.000005 -0.000001 -10.450885 -55.132963 -19.411290 -7.960299 0.000001 0.000007 -12.539204 496.139313 191.165588 -239.112027 2.442595 -0.601405 -2.767497 135.052811 2.503805 93.917130 -0.000000 0.000002 -17.033712 -182.023093 45.683328 171.671505 -0.000001 0.000000 -19.318806 -145.900832 118.534217 401.239709 -3.126200 -0.601400 -2.283496 -133.697319 -24.279261 -103.193626 -0.000003 0.000000 -16.919397 343.697359 -63.101474 -199.937505 0.000001 -0.000004 -18.035894 194.962914 53.313755 -197.844544
23.583199 38.506302 9.221996 2.994225 1.509744 -3.633663 -0.128496 0.160402 6.566002 -3.329200 3.358084 4.149239 -0.000003 0.000002 3.554810 -3.386117 -12.539778 -2.218097 0.000001 0.000006 8.268005 15.154486 4.387407 -5.217921 -0.000000 -0.000000 2.173898 1.553330 -4.218332 1.138941 2.057507 0.117601 5.946300 -18.897284 2.608376 3.627499 4.957697 0.000010 -0.000003 6.300334 -8.144632 -163.930059 -0.000005 0.000006 -8.465497 -79.392951 -159.275189 -160.282068 0.000005 0.000004 -14.594895 -300.516193 -27.989282 -304.174224 -3.048500 -0.728801 6.604098 22.070534 0.840986 5.568717 -3.710293 0.000004 -0.000007 27.247629 -10.924128 160.575330 -0.000002 0.000001 -10.450898 -55.421378 -18.762736 -7.754794 0.000000 0.000003 -12.539194 495.175328 190.857957 -238.675387 2.442593 -0.601404 -2.767503 135.033605 2.387113 93.949361 -0.000002 -0.000004 -17.033710 -181.899412 45.708254 171.721706 -0.000004 0.000002 -19.318808 -145.828500 118.579433 401.095537 -3.126198 -0.601403 -2.283499 -133.757493 -24.134518 -103.095791 -0.000004 -0.000002 -16.919392 342.873365 -62.956230 -200.601905 -0.000001 0.000001 -18.035898 194.568279 53.374797 -197.643613
